# xmcd CD database file
#
# Track frame offsets:
#	150
#	19467
#	39933
#	72068
#
# Disc length: 1235 seconds
#
# Revision: 0
# Processed by: cddbd v1.5.1PL0 Copyright (c) Steve Scherf et al.
# Submitted via: CDex 1.51
#
DISCID=2b04d104
DTITLE=Forecast - Forecast
DYEAR=2000
DGENRE=Jazz
TTITLE0=Star 
TTITLE1=Moment of Thought 
TTITLE2=Serengeti Sunrise
TTITLE3=Slam the Ham
EXTD=YEAR: 2000
EXTT0=
EXTT1=
EXTT2=
EXTT3=
PLAYORDER=
